<svg width="197" height="186" viewBox="0 0 197 186" fill="none" xmlns="http://www.w3.org/2000/svg">
<rect width="197" height="186" fill="#292929"/>
<g id="CLOUD365 CLOUD VPS" clip-path="url(#clip0_0_1)">
<rect width="1440" height="6737" transform="translate(-951 -4966)" fill="white"/>
<g id="OBJECTS" clip-path="url(#clip1_0_1)">
<g id="Group" opacity="0.13">
<path id="Vector" d="M34.4806 183.806L137.771 182.399C155.642 182.424 173.218 169.393 183.946 149.254C194.68 129.11 198.555 102.467 195.052 78.0531C191.545 53.644 180.9 31.7044 166.463 17.2419C157.565 8.32831 147.16 2.10552 136.226 0.43791C125.291 -1.2297 113.842 1.83496 104.463 10.0648C88.1321 24.3944 79.2875 52.6503 61.7945 63.9251C53.6464 69.1789 44.4928 70.1086 35.8395 73.3602C18.8076 79.765 2.6194 98.1235 0.357968 122.513C-1.30009 140.409 2.84996 153.73 11.4346 167.814C18.5328 179.458 24.1644 185.144 34.4806 183.806Z" fill="#4ABAB9"/>
</g>
<g id="Group_2">
<path id="Vector_2" d="M175.906 183.093C175.906 184.696 140.479 185.995 96.7757 185.995C53.0726 185.995 17.6451 184.696 17.6451 183.093C17.6451 181.489 53.0726 180.19 96.7757 180.19C140.479 180.19 175.906 181.489 175.906 183.093Z" fill="#9CD6D5"/>
<g id="Group_3">
<g id="Group_4">
<path id="Vector_3" d="M120.935 167.356C123.942 161.143 127.626 155.063 133.037 150.788C135.107 149.15 137.467 147.778 140.067 147.325C142.667 146.868 145.532 147.438 147.45 149.258C147.808 149.598 148.21 150.011 148.7 149.967C149.024 149.937 149.289 149.716 149.534 149.504C152.939 146.651 157.05 144.767 161.214 143.232C169.863 140.055 179.512 138.274 188.244 141.215C192.021 142.49 195.803 145.013 196.76 148.889C197.706 152.736 195.582 156.701 192.914 159.628C188.509 164.464 182.524 167.646 176.274 169.55C170.025 171.454 163.476 172.147 156.961 172.61C145.639 173.412 131.57 171.321 120.935 167.356Z" fill="#9CD6D5"/>
<g id="Group_5">
<path id="Vector_4" d="M123.923 166.284C128.421 165.713 132.915 165.138 137.403 164.493C141.887 163.849 146.361 163.131 150.81 162.265C155.239 161.404 159.645 160.405 163.991 159.19C168.303 157.99 172.526 156.514 176.765 155.078C180.974 153.651 185.212 152.279 189.563 151.349C190.098 151.236 190.638 151.128 191.177 151.029C191.53 150.966 191.496 150.395 191.138 150.464C186.772 151.271 182.519 152.559 178.315 153.956C174.082 155.368 169.878 156.878 165.595 158.138C161.254 159.412 156.853 160.465 152.419 161.365C147.97 162.27 143.491 163.013 139.002 163.682C134.519 164.346 130.02 164.931 125.527 165.507C124.982 165.576 124.438 165.644 123.893 165.713C123.535 165.758 123.57 166.328 123.933 166.279L123.923 166.284Z" fill="white"/>
<path id="Vector_5" d="M133.778 164.882C136.5 163.509 139.218 162.132 141.941 160.76C144.693 159.372 147.44 157.98 150.192 156.593C151.712 155.826 153.233 155.058 154.759 154.286C154.896 154.217 154.916 154.01 154.837 153.892C154.744 153.75 154.582 153.745 154.445 153.814C151.722 155.186 149.005 156.563 146.282 157.936C143.53 159.323 140.783 160.715 138.031 162.102C136.51 162.87 134.99 163.637 133.464 164.41C133.327 164.478 133.307 164.685 133.386 164.803C133.479 164.946 133.641 164.951 133.778 164.882Z" fill="white"/>
<path id="Vector_6" d="M152.37 161.936C155.382 162.605 158.374 163.347 161.366 164.1C164.452 164.877 167.533 165.664 170.623 166.417C172.271 166.82 173.925 167.209 175.583 167.578C175.941 167.657 176.044 167.101 175.69 167.022C172.679 166.353 169.686 165.61 166.694 164.858C163.608 164.08 160.528 163.293 157.437 162.541C155.789 162.137 154.136 161.749 152.478 161.38C152.12 161.301 152.017 161.857 152.37 161.936Z" fill="white"/>
<path id="Vector_7" d="M169.441 157.503C172.188 154.862 175.225 152.471 178.482 150.498C179.365 149.962 180.267 149.46 181.199 149.013C181.337 148.944 181.43 148.811 181.376 148.653C181.332 148.521 181.155 148.408 181.018 148.476C177.525 150.164 174.327 152.471 171.384 154.989C170.574 155.683 169.784 156.396 169.014 157.134C168.901 157.242 168.931 157.439 169.039 157.533C169.161 157.641 169.328 157.611 169.436 157.508L169.441 157.503Z" fill="white"/>
</g>
</g>
<g id="Group_6">
<path id="Vector_8" d="M120.734 151.226C118.728 145.544 118.414 139.277 119.836 133.424C120.518 130.615 121.617 127.86 123.432 125.607C125.247 123.359 127.832 121.652 130.697 121.293C131.114 121.239 131.585 121.189 131.845 120.855C132.032 120.614 132.051 120.279 132.066 119.974C132.527 111.941 137.967 105.118 143.712 99.5007C146.351 96.9231 149.142 94.4438 152.38 92.6778C155.617 90.9167 159.365 89.9034 163.01 90.4297C165.149 90.7396 167.194 91.5661 169.058 92.6581C170.81 93.6813 172.458 94.9898 173.483 96.7411C174.768 98.9301 174.96 101.646 174.41 104.125C173.861 106.604 172.625 108.882 171.197 110.982C169.171 113.968 166.738 116.674 163.991 119.005C163.677 119.271 163.334 119.576 163.304 119.989C163.26 120.565 163.819 120.968 164.271 121.322C166.723 123.251 167.366 126.876 166.483 129.877C165.6 132.878 163.476 135.347 161.18 137.467C156.446 141.84 150.785 145.121 144.83 147.566C142.181 148.653 139.449 149.583 136.623 150.031C134.489 150.365 132.326 150.424 130.172 150.582C127.42 150.778 123.471 150.862 120.734 151.226Z" fill="#2D9F9E"/>
<g id="Group_7">
<path id="Vector_9" d="M122.539 150.404C125.483 147.148 128.382 143.857 131.242 140.527C134.112 137.182 136.942 133.802 139.728 130.388C142.505 126.989 145.232 123.551 147.92 120.083C150.609 116.614 153.253 113.107 155.853 109.575C158.453 106.038 161.008 102.472 163.52 98.866C163.839 98.4134 164.153 97.956 164.467 97.5034C164.673 97.2082 164.251 96.8245 164.045 97.1246C161.548 100.735 159.002 104.312 156.412 107.858C153.812 111.42 151.168 114.947 148.48 118.44C145.801 121.917 143.084 125.361 140.317 128.77C137.555 132.179 134.744 135.553 131.899 138.894C129.049 142.234 126.16 145.534 123.231 148.801C122.863 149.214 122.49 149.622 122.122 150.036C121.877 150.306 122.299 150.685 122.544 150.414L122.539 150.404Z" fill="white"/>
<path id="Vector_10" d="M130.555 141.265C131.418 138.274 132.375 135.318 133.385 132.376C134.396 129.459 135.461 126.556 136.554 123.669C137.177 122.031 137.805 120.393 138.438 118.755C138.492 118.612 138.458 118.445 138.316 118.371C138.188 118.307 137.992 118.351 137.933 118.494C136.805 121.406 135.691 124.323 134.612 127.255C133.533 130.192 132.498 133.138 131.536 136.114C130.997 137.782 130.481 139.46 129.996 141.142C129.893 141.491 130.452 141.604 130.55 141.255L130.555 141.265Z" fill="white"/>
<path id="Vector_11" d="M140.788 129.016C143.535 127.712 146.238 126.315 148.877 124.81C151.565 123.28 154.195 121.637 156.721 119.851C158.095 118.882 159.439 117.864 160.739 116.796C160.856 116.698 160.91 116.541 160.817 116.403C160.739 116.285 160.542 116.226 160.425 116.324C158.085 118.243 155.617 119.989 153.071 121.617C150.491 123.27 147.832 124.795 145.119 126.222C143.628 127.004 142.127 127.756 140.606 128.475C140.469 128.538 140.376 128.676 140.43 128.834C140.474 128.966 140.651 129.075 140.788 129.011V129.016Z" fill="white"/>
<path id="Vector_12" d="M151.693 115.104C152.198 112.728 152.841 110.382 153.581 108.07C154.327 105.743 155.176 103.446 156.093 101.183C156.603 99.9188 157.138 98.6644 157.692 97.4198C157.839 97.0853 157.334 96.8295 157.187 97.164C156.196 99.3973 155.269 101.66 154.42 103.948C153.562 106.265 152.782 108.611 152.124 110.992C151.757 112.315 151.428 113.648 151.143 114.991C151.07 115.35 151.624 115.463 151.698 115.104H151.693Z" fill="white"/>
</g>
</g>
<g id="Group_8">
<path id="Vector_13" d="M152.188 140.98C153.719 139.706 155.303 138.495 156.932 137.359C158.57 136.218 160.258 135.141 161.985 134.142C163.697 133.153 165.448 132.233 167.238 131.392C169.044 130.541 170.888 129.769 172.762 129.075C174.626 128.386 176.52 127.772 178.438 127.245C178.673 127.181 178.913 127.117 179.154 127.053C179.325 127.009 179.419 126.802 179.365 126.64C179.306 126.463 179.124 126.384 178.953 126.429C177.015 126.94 175.102 127.54 173.213 128.214C171.339 128.888 169.5 129.641 167.69 130.467C165.855 131.308 164.055 132.223 162.298 133.212C160.557 134.196 158.86 135.249 157.211 136.375C155.563 137.502 153.959 138.697 152.409 139.961C152.218 140.119 152.026 140.276 151.84 140.434C151.703 140.547 151.639 140.724 151.742 140.891C151.83 141.029 152.061 141.103 152.198 140.989L152.188 140.98Z" fill="#4ABAB9"/>
<path id="Vector_14" d="M174.636 127.968C179.075 125.174 184.005 123.172 189.132 122.085C191.177 121.652 193.336 121.366 195.337 121.967C196.269 122.247 197.309 123.118 196.912 124.008C196.779 124.308 196.509 124.515 196.245 124.702C193.86 126.359 190.927 126.989 188.067 127.461C183.48 128.224 179.286 127.791 174.636 127.963" fill="#4ABAB9"/>
<path id="Vector_15" d="M167.121 130.905C169.127 126.05 171.992 121.554 175.543 117.692C176.961 116.152 178.555 114.667 180.532 113.993C181.454 113.678 182.803 113.786 182.995 114.745C183.059 115.065 182.96 115.395 182.853 115.7C181.867 118.435 179.836 120.648 177.78 122.7C174.479 125.986 170.81 128.071 167.121 130.91" fill="#4ABAB9"/>
<path id="Vector_16" d="M169.098 129.887C174.258 128.962 179.576 128.957 184.736 129.872C186.797 130.236 188.901 130.782 190.535 132.091C191.295 132.701 191.933 133.896 191.231 134.575C190.996 134.801 190.667 134.895 190.353 134.968C187.523 135.613 184.569 135.091 181.739 134.462C177.201 133.448 173.468 131.471 169.098 129.887Z" fill="#4ABAB9"/>
<path id="Vector_17" d="M158.963 135.49C159.865 130.315 161.69 125.302 164.315 120.752C165.364 118.936 166.596 117.141 168.381 116.054C169.215 115.547 170.554 115.355 170.947 116.251C171.079 116.551 171.055 116.89 171.016 117.215C170.648 120.102 169.147 122.705 167.582 125.154C165.075 129.08 161.945 131.918 158.958 135.49" fill="#4ABAB9"/>
<path id="Vector_18" d="M154.067 139.071C153.886 134.653 154.489 130.211 155.838 126C156.378 124.323 157.069 122.626 158.345 121.411C158.938 120.845 160.003 120.447 160.488 121.111C160.65 121.332 160.689 121.617 160.714 121.888C160.925 124.323 160.155 126.733 159.306 129.026C157.947 132.7 155.877 135.593 154.062 139.066" fill="#4ABAB9"/>
<path id="Vector_19" d="M160.312 134.772C165.472 133.847 170.79 133.842 175.951 134.757C178.011 135.121 180.115 135.667 181.749 136.975C182.509 137.585 183.147 138.781 182.445 139.46C182.21 139.686 181.881 139.779 181.567 139.853C178.737 140.497 175.784 139.976 172.953 139.346C168.416 138.333 164.683 136.356 160.312 134.772Z" fill="#4ABAB9"/>
<path id="Vector_20" d="M155.843 137.777C159.821 137.723 163.809 138.377 167.562 139.7C169.058 140.227 170.569 140.896 171.634 142.081C172.129 142.632 172.458 143.606 171.85 144.029C171.648 144.172 171.388 144.202 171.143 144.216C168.945 144.349 166.797 143.592 164.751 142.77C161.474 141.447 158.924 139.509 155.843 137.777Z" fill="#4ABAB9"/>
</g>
</g>
<g id="Group_9">
<g id="Group_10">
<path id="Vector_21" d="M57.5955 173.485C56.9529 167.553 55.7216 161.532 52.5673 156.475C51.3606 154.537 49.8399 152.731 47.8581 151.605C45.8762 150.473 43.3793 150.104 41.2945 151.019C40.9021 151.192 40.4606 151.408 40.073 151.226C39.818 151.108 39.6659 150.847 39.5285 150.606C37.5859 147.291 34.7947 144.556 31.8514 142.096C25.7392 136.985 18.4103 132.72 10.4536 132.563C7.00996 132.494 3.2033 133.443 1.29996 136.316C-0.588657 139.169 -0.00980759 143.016 1.30977 146.174C3.48781 151.393 7.43184 155.732 11.9596 159.102C16.4874 162.476 21.6136 164.955 26.7742 167.228C35.7513 171.183 47.7992 173.599 57.6004 173.48" fill="#9CD6D5"/>
<g id="Group_11">
<path id="Vector_22" d="M55.4763 171.734C51.9836 169.953 48.4958 168.177 45.0325 166.338C41.5741 164.503 38.1452 162.614 34.7751 160.612C31.4197 158.619 28.1331 156.519 24.9494 154.261C21.7902 152.023 18.7832 149.593 15.7565 147.187C12.7494 144.796 9.69818 142.445 6.43112 140.418C6.02887 140.167 5.62171 139.926 5.21456 139.685C4.94475 139.528 5.13607 139.075 5.41078 139.238C8.72689 141.171 11.8125 143.458 14.8244 145.825C17.8609 148.21 20.8337 150.665 23.9536 152.943C27.1127 155.245 30.3896 157.39 33.7302 159.416C37.0856 161.448 40.5145 163.366 43.968 165.216C47.4215 167.066 50.9093 168.856 54.3971 170.632C54.819 170.849 55.2409 171.065 55.6676 171.277C55.9472 171.419 55.7559 171.872 55.4714 171.724L55.4763 171.734Z" fill="white"/>
<path id="Vector_23" d="M47.8679 167.715C46.0529 165.802 44.2427 163.893 42.4277 161.979C40.593 160.046 38.7584 158.113 36.9286 156.18C35.9132 155.112 34.8977 154.04 33.8872 152.972C33.794 152.874 33.8382 152.702 33.9363 152.628C34.054 152.539 34.1864 152.579 34.2796 152.677C36.0947 154.591 37.9048 156.499 39.7198 158.413C41.5545 160.346 43.3892 162.279 45.2189 164.213C46.2344 165.28 47.2498 166.353 48.2603 167.42C48.3535 167.518 48.3094 167.691 48.2113 167.764C48.0935 167.853 47.9611 167.814 47.8679 167.715Z" fill="white"/>
<path id="Vector_24" d="M33.6027 159.889C30.9586 159.554 28.3096 159.284 25.6558 159.023C22.9234 158.752 20.1861 158.497 17.4538 158.206C15.9968 158.054 14.5399 157.887 13.083 157.705C12.769 157.665 12.8475 157.178 13.1566 157.218C15.8006 157.552 18.4496 157.823 21.1035 158.083C23.8358 158.354 26.5731 158.61 29.3055 158.9C30.7624 159.052 32.2193 159.22 33.6763 159.402C33.9902 159.441 33.9117 159.928 33.6027 159.889Z" fill="white"/>
<path id="Vector_25" d="M21.0054 151.299C19.5337 148.348 17.7628 145.519 15.6878 142.961C15.1237 142.268 14.535 141.594 13.912 140.959C13.8188 140.866 13.7845 140.728 13.8728 140.615C13.9464 140.521 14.1229 140.477 14.2162 140.576C16.5659 142.966 18.4987 145.78 20.1616 148.687C20.6178 149.489 21.0544 150.296 21.4665 151.122C21.5253 151.24 21.442 151.393 21.3291 151.442C21.1967 151.496 21.0691 151.422 21.0103 151.304L21.0054 151.299Z" fill="white"/>
</g>
</g>
<g id="Group_12">
<path id="Vector_26" d="M57.414 140.065C55.7461 138.977 54.1273 137.817 52.5575 136.592C50.9829 135.362 49.4622 134.063 47.9954 132.701C46.5483 131.353 45.1502 129.951 43.8208 128.485C42.4767 127.004 41.1964 125.469 39.9798 123.88C38.7682 122.296 37.6252 120.663 36.5558 118.986C36.4233 118.779 36.2909 118.568 36.1585 118.361C36.0652 118.209 35.8396 118.184 35.7022 118.282C35.5502 118.391 35.5306 118.592 35.6238 118.74C36.6882 120.442 37.8214 122.1 39.0233 123.708C40.2202 125.302 41.4809 126.847 42.8054 128.332C44.1495 129.842 45.5525 131.294 47.0192 132.686C48.4713 134.063 49.9773 135.377 51.5372 136.626C53.0971 137.876 54.7111 139.056 56.374 140.163C56.5801 140.301 56.7861 140.438 56.9921 140.571C57.1393 140.67 57.3306 140.679 57.4532 140.532C57.5563 140.409 57.5612 140.163 57.414 140.069V140.065Z" fill="#4ABAB9"/>
<path id="Vector_27" d="M38.3806 122.419C34.4072 118.995 31.042 114.863 28.4863 110.274C27.4659 108.444 26.5584 106.461 26.5388 104.366C26.529 103.387 27.0489 102.137 28.0202 102.255C28.344 102.295 28.6236 102.491 28.8787 102.688C31.1647 104.479 32.6265 107.106 33.9314 109.703C36.0162 113.87 36.8452 118.016 38.3856 122.419" fill="#4ABAB9"/>
<path id="Vector_28" d="M43.399 128.745C38.1795 128.258 33.0484 126.847 28.3195 124.589C26.4308 123.688 24.5471 122.601 23.3208 120.904C22.7468 120.112 22.4525 118.789 23.306 118.322C23.5906 118.164 23.9339 118.164 24.2577 118.179C27.1569 118.312 29.8647 119.601 32.4254 120.968C36.5313 123.157 39.6021 126.055 43.399 128.75" fill="#4ABAB9"/>
<path id="Vector_29" d="M41.8439 127.152C39.4353 122.483 37.8558 117.387 37.1984 112.177C36.9384 110.097 36.8305 107.917 37.5958 105.969C37.9539 105.059 38.9006 104.095 39.7542 104.567C40.0387 104.725 40.2251 105.01 40.387 105.295C41.839 107.814 42.2168 110.8 42.4522 113.697C42.8299 118.346 42.05 122.503 41.839 127.161" fill="#4ABAB9"/>
<path id="Vector_30" d="M50.1833 135.204C44.9835 135.868 39.6708 135.607 34.5642 134.437C32.5235 133.969 30.4485 133.32 28.8836 131.928C28.1527 131.279 27.5787 130.054 28.3097 129.409C28.5549 129.193 28.8885 129.119 29.2074 129.06C32.0673 128.558 34.9909 129.227 37.7871 130C42.2707 131.239 45.8959 133.399 50.1882 135.199" fill="#4ABAB9"/>
<path id="Vector_31" d="M55.0397 138.834C50.8848 140.315 46.4747 141.053 42.0647 141.004C40.3085 140.984 38.4837 140.822 36.9482 139.961C36.232 139.558 35.5404 138.657 36.0309 137.993C36.1928 137.772 36.4528 137.649 36.7079 137.546C38.9644 136.621 41.4858 136.645 43.9239 136.778C47.8286 136.995 51.1938 138.116 55.0397 138.829" fill="#4ABAB9"/>
<path id="Vector_32" d="M49.0992 134.122C46.6906 129.453 45.111 124.357 44.4536 119.148C44.1937 117.067 44.0857 114.888 44.851 112.94C45.2091 112.03 46.1559 111.065 47.0094 111.538C47.2939 111.695 47.4803 111.98 47.6422 112.266C49.0943 114.784 49.472 117.77 49.7074 120.668C50.0852 125.316 49.3052 129.473 49.0943 134.132" fill="#4ABAB9"/>
<path id="Vector_33" d="M53.2835 137.511C52.0523 133.718 51.4979 129.704 51.65 125.715C51.7089 124.126 51.9002 122.478 52.7145 121.111C53.0922 120.471 53.9262 119.866 54.505 120.328C54.7012 120.481 54.8043 120.717 54.8926 120.948C55.6676 123.014 55.5842 125.297 55.4027 127.496C55.1133 131.023 54.0194 134.043 53.2835 137.506" fill="#4ABAB9"/>
</g>
</g>
<g id="Group_13">
<path id="Vector_34" d="M108.775 78.7658C108.775 69.5029 102.113 63.6392 92.0517 63.6392C83.786 63.6392 77.139 67.3188 72.2826 73.5859C70.6294 75.7159 67.6322 76.2226 65.4394 74.6533L54.5688 66.8662C52.4202 65.3265 51.8266 62.3553 53.2787 60.1466C61.9074 47.0074 75.6674 38.876 94.686 38.876C117.914 38.876 134.023 51.5429 134.023 73.8515C134.023 101.95 111.576 106.884 108.382 123.506C107.931 125.847 105.9 127.545 103.526 127.545H89.9228C86.9304 127.545 84.5905 124.893 85.0123 121.922C88.1126 100.14 108.784 93.9809 108.784 78.7658H108.775ZM81.5196 157.793C81.5196 148.151 87.7153 143.198 96.3882 143.198C105.061 143.198 111.257 148.151 111.257 157.793C111.257 167.434 105.061 172.919 96.3882 172.919C87.7153 172.919 81.5196 167.247 81.5196 157.793Z" fill="#E0AB6C"/>
<path id="Vector_35" d="M111.914 78.6823C111.914 69.4194 105.257 63.5557 95.1913 63.5557C86.9255 63.5557 80.2785 67.2353 75.4221 73.5024C73.7689 75.6324 70.7717 76.1391 68.5789 74.5698L57.7083 66.7827C55.5597 65.243 54.9662 62.2718 56.4182 60.0631C65.047 46.9239 78.8069 38.7925 97.8255 38.7925C121.053 38.7925 137.163 51.4594 137.163 73.768C137.163 101.867 114.715 106.8 111.522 123.422C111.07 125.764 109.039 127.461 106.665 127.461H93.0623C90.0699 127.461 87.73 124.81 88.1519 121.838C91.2521 100.056 111.924 93.8974 111.924 78.6823H111.914ZM84.6592 157.709C84.6592 148.068 90.8548 143.114 99.5277 143.114C108.201 143.114 114.396 148.068 114.396 157.709C114.396 167.351 108.201 172.836 99.5277 172.836C90.8548 172.836 84.6592 167.164 84.6592 157.709Z" fill="#F3D1A4"/>
</g>
<g id="Group_14">
<path id="Vector_36" d="M167.39 46.2648C167.827 44.484 166.826 43.0378 164.889 42.5606C163.299 42.1671 161.847 42.5606 160.616 43.5346C160.199 43.8642 159.596 43.8199 159.252 43.4166L157.53 41.4046C157.192 41.0062 157.216 40.406 157.599 40.0518C159.88 37.9366 162.912 37.0265 166.566 37.9267C171.035 39.0286 173.532 42.231 172.477 46.5206C171.148 51.9219 166.601 51.8087 165.203 54.8537C165.006 55.2817 164.535 55.5129 164.079 55.3997L161.465 54.7553C160.891 54.6127 160.562 53.9929 160.788 53.4419C162.411 49.3983 166.679 49.1966 167.395 46.2697L167.39 46.2648ZM158.418 60.1665C158.874 58.3119 160.297 57.6527 161.965 58.066C163.633 58.4792 164.589 59.7237 164.133 61.5783C163.687 63.3984 162.23 64.1953 160.562 63.7821C158.894 63.3689 157.972 61.9866 158.418 60.1665Z" fill="#4ABAB9"/>
<path id="Vector_37" d="M34.0883 70.4279C33.2053 68.8242 31.4884 68.4455 29.742 69.4146C28.3096 70.2065 27.51 71.4855 27.2648 73.04C27.1814 73.5664 26.7104 73.9451 26.1807 73.8812L23.5513 73.5762C23.0313 73.5172 22.6438 73.0597 22.683 72.5333C22.9234 69.4293 24.5324 66.6942 27.8289 64.8692C31.8563 62.6359 35.8592 63.2852 37.9882 67.1517C40.6715 72.0217 37.2524 75.0323 38.2874 78.2248C38.4346 78.6725 38.2433 79.1644 37.8312 79.3907L35.4717 80.6992C34.9517 80.9845 34.2944 80.7533 34.0834 80.1974C32.5382 76.1243 35.5354 73.0695 34.0834 70.4328L34.0883 70.4279ZM36.9139 86.7449C35.9917 85.0724 36.595 83.6212 38.0961 82.7849C39.5972 81.9536 41.1473 82.2143 42.0696 83.8868C42.9722 85.5249 42.4424 87.104 40.9364 87.9353C39.4353 88.7667 37.8165 88.3781 36.9139 86.74V86.7449Z" fill="#4ABAB9"/>
<path id="Vector_38" d="M100.734 12.5635C100.759 11.0779 99.7092 10.1186 98.0953 10.0891C96.7708 10.0645 95.6916 10.6401 94.8969 11.6288C94.6271 11.9682 94.1415 12.0371 93.7981 11.7813L92.0762 10.5023C91.7378 10.2514 91.6495 9.76935 91.8898 9.42009C93.3075 7.33927 95.5395 6.07011 98.5907 6.12422C102.314 6.18817 104.865 8.26408 104.801 11.8403C104.723 16.3463 101.107 17.0744 100.553 19.7307C100.474 20.1046 100.146 20.3702 99.7632 20.3653L97.5802 20.326C97.0995 20.3161 96.7316 19.8882 96.8101 19.411C97.3693 15.9282 100.7 14.9985 100.739 12.5585L100.734 12.5635ZM96.1429 25.1615C96.1674 23.6169 97.178 22.8397 98.5662 22.8643C99.9545 22.8889 100.936 23.7005 100.911 25.2452C100.887 26.7603 99.876 27.6556 98.4828 27.631C97.0946 27.6064 96.1135 26.6816 96.1429 25.1615Z" fill="#B3DAC9"/>
</g>
<g id="Group_15">
<g id="Group_16">
<path id="Vector_39" d="M136.481 169.973C136.481 169.973 135.323 173.461 135.946 177.888C135.946 177.888 132.213 179.866 128.554 177.352C128.554 177.352 131.595 175.03 130.638 168.812" fill="#FFC2AC"/>
<path id="Vector_40" d="M120.043 181.642C120.15 181.416 120.322 181.214 120.548 181.086C121.789 180.378 124.811 178.7 129.383 176.447C129.383 176.447 131.943 177.308 135.828 176.816C135.828 176.816 136.24 179.369 136.196 181.485C133.817 181.588 124.634 181.962 120.043 181.637V181.642Z" fill="#602B29"/>
<path id="Vector_41" d="M136.191 181.489C136.182 182.016 136.157 182.522 136.123 182.955H119.905V182.188C119.905 181.996 119.959 181.809 120.038 181.642C124.624 181.962 133.807 181.593 136.191 181.489Z" fill="#400E09"/>
<path id="Vector_42" d="M125.404 179.109C125.404 179.266 125.277 179.399 125.115 179.399C124.953 179.399 124.825 179.271 124.825 179.109C124.825 178.946 124.953 178.818 125.115 178.818C125.277 178.818 125.404 178.946 125.404 179.109Z" fill="#400E09"/>
<path id="Vector_43" d="M127.553 178.184C127.553 178.341 127.425 178.474 127.263 178.474C127.102 178.474 126.974 178.346 126.974 178.184C126.974 178.021 127.102 177.894 127.263 177.894C127.425 177.894 127.553 178.021 127.553 178.184Z" fill="#400E09"/>
<path id="Vector_44" d="M129.672 177.062C129.672 177.22 129.544 177.352 129.383 177.352C129.221 177.352 129.093 177.225 129.093 177.062C129.093 176.9 129.221 176.772 129.383 176.772C129.544 176.772 129.672 176.9 129.672 177.062Z" fill="#400E09"/>
</g>
<g id="Group_17">
<path id="Vector_45" d="M146.674 168.227C146.674 168.227 148.534 175.34 147.68 178.174C147.68 178.174 151.413 180.151 155.073 177.637C155.073 177.637 151.506 176.432 152.718 166.323" fill="#FFC2AC"/>
<path id="Vector_46" d="M163.589 181.927C163.481 181.701 163.309 181.499 163.083 181.371C161.842 180.663 158.821 178.985 154.249 176.732C154.249 176.732 151.688 177.593 147.803 177.101C147.803 177.101 147.391 179.654 147.435 181.77C149.814 181.873 158.997 182.247 163.589 181.922V181.927Z" fill="#602B29"/>
<path id="Vector_47" d="M147.435 181.774C147.445 182.301 147.469 182.807 147.503 183.24H163.721V182.473C163.721 182.281 163.667 182.094 163.589 181.927C159.002 182.247 149.819 181.878 147.435 181.774Z" fill="#400E09"/>
<path id="Vector_48" d="M154.867 177.529C154.867 177.686 154.739 177.819 154.577 177.819C154.415 177.819 154.288 177.691 154.288 177.529C154.288 177.367 154.415 177.239 154.577 177.239C154.739 177.239 154.867 177.367 154.867 177.529Z" fill="#400E09"/>
<path id="Vector_49" d="M159.772 179.905C159.772 180.062 159.645 180.195 159.483 180.195C159.321 180.195 159.193 180.067 159.193 179.905C159.193 179.743 159.321 179.615 159.483 179.615C159.645 179.615 159.772 179.743 159.772 179.905Z" fill="#400E09"/>
<path id="Vector_50" d="M157.074 178.779C157.074 178.936 156.947 179.069 156.785 179.069C156.623 179.069 156.495 178.941 156.495 178.779C156.495 178.616 156.623 178.488 156.785 178.488C156.947 178.488 157.074 178.616 157.074 178.779Z" fill="#400E09"/>
</g>
<g id="Group_18">
<path id="Vector_51" d="M134.484 55.3408C135.667 57.3036 135.868 59.6599 135.397 61.8538C134.926 64.0429 133.812 66.0893 132.493 67.9733C134.896 69.5967 137.83 70.5707 140.827 70.7428C142 70.8117 143.226 70.7428 144.266 70.246C143.201 69.3114 142.652 68.0029 142.264 66.7042C141.509 64.161 141.283 61.4898 141.607 58.8728" fill="#FFC2AC"/>
<path id="Vector_52" d="M137.737 59.655C138.664 60.1616 140.199 60.8749 141.465 61.1258C141.465 60.3732 141.509 59.6205 141.602 58.8728L134.479 55.3408C134.759 55.8032 134.98 56.2902 135.151 56.792C135.784 57.9185 136.554 59.0155 137.732 59.655H137.737Z" fill="#FC7F51"/>
</g>
<g id="Group_19">
<path id="Vector_53" d="M147.658 49.6005L145.536 50.0244L145.6 50.3428L147.721 49.9189L147.658 49.6005Z" fill="#D03711"/>
<path id="Vector_54" d="M138.453 44.155C140.435 43.6139 142.623 44.3813 144.104 45.8079C145.581 47.2344 146.66 49.4481 146.988 51.4797C147.317 53.5113 147.214 54.7854 147.023 56.8367C146.974 57.3778 146.621 58.5388 146.287 58.9667C145.948 59.3947 145.522 59.7932 145.007 59.9653C144.192 60.2359 142.642 60.3048 141.367 60.0736C139.346 59.7095 137.58 59.1045 136.142 57.6386C134.705 56.1726 134.646 54.8002 134.921 52.7587" fill="#FFC2AC"/>
<g id="Group_20">
<path id="Vector_55" d="M135.313 54.4459C135.019 54.2147 134.7 54.0032 134.342 53.8999C133.984 53.7965 133.572 53.8162 133.263 54.0228C132.964 54.2196 132.782 54.5689 132.743 54.928C132.704 55.2871 132.792 55.6462 132.939 55.9758C133.204 56.5611 133.704 57.0678 134.332 57.1908C134.96 57.3138 135.691 56.9498 135.848 56.3299C135.951 55.9167 135.804 55.4888 135.637 55.1001" fill="#FFC2AC"/>
<path id="Vector_56" d="M134.828 54.8492C134.725 54.7656 134.612 54.6918 134.484 54.6524C134.357 54.618 134.21 54.6229 134.102 54.6967C133.994 54.7656 133.93 54.8885 133.915 55.0164C133.901 55.1443 133.93 55.2722 133.984 55.3903C134.077 55.5969 134.254 55.7789 134.479 55.8232C134.7 55.8675 134.96 55.7396 135.014 55.5182C135.053 55.3706 134.999 55.2181 134.94 55.0804" fill="#FC7F51"/>
</g>
<g id="Group_21">
<path id="Vector_57" d="M132.807 47.6376C132.11 47.736 131.399 47.7409 130.702 47.6523C130.099 47.5736 129.495 47.4162 128.971 47.1112C128.034 46.5652 127.406 45.5617 127.209 44.4893C127.013 43.4218 127.229 42.3003 127.695 41.3164C128.092 40.4801 128.701 39.7029 129.535 39.2995C130.423 38.8716 131.463 38.9011 132.434 39.088C133.592 39.3094 134.788 39.8013 135.416 40.8048C136.152 41.9854 135.902 43.5153 135.495 44.8484" fill="#2D0E0B"/>
<path id="Vector_58" d="M146.817 48.0311C146.419 45.5961 144.521 43.5202 142.196 42.7086C139.871 41.9018 137.202 42.3003 135.093 43.5694C134.411 43.9826 133.783 44.4746 133.155 44.9714C132.61 45.3994 132.066 45.8323 131.634 46.3734C130.854 47.3523 130.516 48.6362 130.535 49.8857C130.555 51.1352 130.918 52.365 131.423 53.5062C131.59 53.8801 131.791 54.2687 132.144 54.4704C132.895 54.8984 133.793 54.2736 134.651 54.19C134.749 54.1802 134.857 54.1802 134.941 54.2343C135.068 54.3179 135.093 54.4901 135.102 54.6426C135.304 56.9447 135.941 59.2125 136.971 61.2786C137.177 61.6967 137.413 62.1197 137.781 62.4051C136.976 59.7389 136.599 57.3383 136.657 54.554C136.667 54.5491 136.687 54.1556 136.692 54.1457C136.726 53.7227 136.829 52.9946 136.859 52.847C137.133 51.5189 137.418 51.0811 137.693 49.7578C137.943 50.2989 138.193 50.8351 138.443 51.3762C138.522 51.5385 138.615 51.7205 138.786 51.7747C138.953 51.8288 139.135 51.7353 139.287 51.6468C140.248 51.0958 141.21 50.5399 142.166 49.989C142.279 49.925 142.397 49.8513 142.446 49.7381C142.49 49.6397 142.48 49.5266 142.47 49.4184L142.294 47.7065C142.794 48.1787 143.29 48.651 143.785 49.1281C143.878 49.2167 143.981 49.3101 144.109 49.3347C144.232 49.3593 144.354 49.3101 144.472 49.2659C145.173 48.9953 145.875 48.7297 146.576 48.4591C146.655 48.4296 146.738 48.3952 146.787 48.3263C146.846 48.2427 146.831 48.1295 146.817 48.0311Z" fill="#2D0E0B"/>
<path id="Vector_59" d="M130.962 48.0264C132.046 46.4916 133.704 44.5878 136 43.1268C136.677 42.6939 136.304 41.6363 135.51 41.7445C133.263 42.0446 130.462 43.2843 129.613 47.4361C129.451 48.233 130.496 48.6905 130.962 48.0313V48.0264Z" fill="#D03711"/>
</g>
<path id="Vector_60" d="M141.823 50.584C140.847 50.5938 139.611 50.707 139.14 51.2924C138.904 51.5826 138.595 51.5383 138.811 51.2284C139.473 50.2593 140.43 50.1117 141.843 49.9838C141.995 49.9691 142.132 50.1314 142.127 50.3085C142.127 50.4561 141.98 50.6184 141.823 50.5889V50.584Z" fill="#2D0E0B"/>
<g id="Group_22">
<path id="Vector_61" d="M138.831 55.4342C139.051 56.1475 140.072 56.4623 141.117 56.1377C142.157 55.813 142.824 54.9767 142.608 54.2635C142.387 53.5502 141.367 53.2353 140.322 53.56C139.277 53.8847 138.615 54.7209 138.831 55.4342Z" fill="#FC7F51"/>
<path id="Vector_62" d="M145.36 50.2742C145.443 50.5447 145.635 50.7218 145.791 50.6726C145.948 50.6234 146.002 50.3676 145.919 50.0971C145.836 49.8265 145.644 49.6494 145.487 49.6986C145.33 49.7478 145.276 50.0036 145.36 50.2742Z" fill="#2D0E0B"/>
<path id="Vector_63" d="M140.891 52.0744C140.984 52.3794 141.229 52.5712 141.44 52.5073C141.651 52.4433 141.744 52.1432 141.651 51.8382C141.558 51.5332 141.313 51.3414 141.102 51.4054C140.891 51.4693 140.798 51.7694 140.891 52.0744Z" fill="#2D0E0B"/>
<path id="Vector_64" d="M144.771 53.3485C144.933 53.2501 145.061 53.1173 145.173 52.9697C144.511 52.6303 144.006 51.9859 143.854 51.2529C143.834 51.1545 143.869 51.0512 143.972 51.0168C144.06 50.9873 144.187 51.0365 144.207 51.1349C144.359 51.8531 144.855 52.4532 145.536 52.7287C145.63 52.768 145.664 52.8959 145.62 52.9796C145.468 53.26 145.252 53.4961 144.977 53.6584C144.771 53.7814 144.565 53.4715 144.771 53.3436V53.3485Z" fill="#F46E45"/>
<path id="Vector_65" d="M146.047 54.8491C146.047 54.8491 145.247 55.6608 143.962 55.5526C143.962 55.5526 145.998 56.5118 146.047 54.8491Z" fill="#E53E3E"/>
</g>
<g id="Group_23">
<path id="Vector_66" d="M140.94 54.4801C140.572 54.4801 140.209 54.3866 139.875 54.1997C139.351 53.9046 138.958 53.4225 138.777 52.8322C138.399 51.6122 139.046 50.3283 140.214 49.9643C140.783 49.7872 141.381 49.8511 141.916 50.1463C142.441 50.4414 142.833 50.9235 143.015 51.5138C143.393 52.7338 142.745 54.0177 141.578 54.3817C141.367 54.4457 141.156 54.4801 140.94 54.4801ZM140.847 50.1906C140.665 50.1906 140.484 50.2201 140.307 50.2742C139.311 50.5841 138.762 51.6909 139.086 52.7338C139.243 53.2405 139.581 53.6635 140.032 53.9144C140.484 54.1653 140.999 54.2243 141.48 54.0718C142.475 53.7619 143.025 52.66 142.701 51.6122C142.544 51.1055 142.206 50.6825 141.754 50.4316C141.47 50.2742 141.156 50.1906 140.847 50.1906Z" fill="#D03711"/>
<path id="Vector_67" d="M146.076 52.5027C145.164 52.5027 144.295 51.7698 144.021 50.6974C143.707 49.4627 144.305 48.2378 145.35 47.9722C145.86 47.8393 146.405 47.9525 146.871 48.2919C147.332 48.6215 147.665 49.1331 147.817 49.7283C147.97 50.3235 147.916 50.9286 147.67 51.4402C147.42 51.9616 146.998 52.3207 146.488 52.4535C146.351 52.488 146.208 52.5077 146.071 52.5077L146.076 52.5027ZM145.772 48.2378C145.659 48.2378 145.541 48.2526 145.433 48.2821C144.56 48.5034 144.065 49.5512 144.335 50.6138C144.604 51.6763 145.536 52.3601 146.414 52.1338C146.831 52.0256 147.18 51.7304 147.386 51.2926C147.597 50.8499 147.641 50.3186 147.508 49.7972C147.376 49.2757 147.087 48.833 146.684 48.5477C146.4 48.3411 146.081 48.2378 145.772 48.2378Z" fill="#D03711"/>
<path id="Vector_68" d="M138.899 52.6219L136.777 53.0459L136.841 53.3643L138.962 52.9403L138.899 52.6219Z" fill="#D03711"/>
<path id="Vector_69" d="M142.897 51.4351L142.642 51.2383C142.676 51.1989 143.427 50.2495 144.281 50.6382L144.148 50.9333C143.525 50.6529 142.902 51.4301 142.897 51.44V51.4351Z" fill="#D03711"/>
</g>
</g>
<g id="Group_24">
<g id="Group_25">
<path id="Vector_70" d="M127.778 92.835C127.778 92.835 125.502 98.5904 124.457 109.27C123.413 119.95 118.11 171.911 118.11 171.911C118.11 171.911 135.848 174.085 141.72 172.797C141.72 172.797 139.571 118.892 140.631 109.132L144.766 172.565C144.766 172.565 158.977 173.372 167.145 170.977C167.145 170.977 155.004 105.325 149.466 93.1645" fill="#FFB351"/>
<path id="Vector_71" d="M140.346 116.856C140.278 116.467 140.214 116.074 140.155 115.685C139.203 128.992 138.178 142.342 136.731 155.58C136.226 160.204 136.677 166.776 131.968 169.363C129.863 170.519 127.425 170.879 125.095 171.272C123.236 171.582 121.377 171.857 119.508 172.074C123.8 172.551 136.844 173.869 141.72 172.797C141.72 172.797 140.209 134.831 140.346 116.861V116.856Z" fill="#FFC170"/>
<path id="Vector_72" d="M132.071 96.7509C137.796 95.8014 144.246 95.9589 149.466 93.1697C149.466 93.1697 149.466 92.6138 149.466 92.6089L127.778 92.8303C127.778 92.8303 126.562 95.9146 125.497 101.744C126.925 99.2597 128.897 97.2723 132.071 96.7459V96.7509Z" fill="#FFC170"/>
<path id="Vector_73" d="M160.557 170.814C157.648 170.426 154.175 170.273 151.477 169.043C149.534 168.158 148.396 166.613 147.768 164.596C146.822 161.556 146.449 158.211 145.948 155.073C144.761 147.659 144.403 140.148 143.304 132.725C142.829 129.532 142.186 126.369 141.553 123.201L144.771 172.556C144.771 172.556 157.27 173.264 165.561 171.375C163.839 171.311 162.068 171.006 160.557 170.804V170.814Z" fill="#FFC170"/>
</g>
<g id="Group_26">
<path id="Vector_74" d="M123.059 171.877C122.996 166.663 123.05 161.448 123.226 156.239C123.403 151.03 123.702 145.825 124.124 140.63C124.541 135.46 125.08 130.305 125.738 125.164C126.405 119.965 127.19 114.78 128.102 109.62C129.005 104.494 130.03 99.3927 131.173 94.3161C131.315 93.6864 131.458 93.0617 131.605 92.432C131.659 92.1959 131.296 92.0975 131.242 92.3336C130.064 97.4299 129.005 102.551 128.073 107.696C127.146 112.802 126.336 117.928 125.645 123.074C124.953 128.244 124.374 133.434 123.923 138.633C123.471 143.828 123.143 149.027 122.932 154.237C122.721 159.471 122.638 164.71 122.672 169.949C122.672 170.593 122.682 171.238 122.691 171.882C122.691 172.123 123.069 172.123 123.069 171.882L123.059 171.877Z" fill="#F3D1A4"/>
<path id="Vector_75" d="M134.7 91.4185C134.725 96.6722 134.592 101.921 134.391 107.17C134.185 112.522 133.905 117.869 133.636 123.216C133.366 128.573 133.096 133.935 132.919 139.297C132.743 144.605 132.704 149.908 132.699 155.221C132.694 160.371 132.679 165.521 132.576 170.672C132.566 171.277 132.552 171.882 132.537 172.487C132.532 172.728 132.905 172.728 132.915 172.487C133.042 167.41 133.062 162.329 133.076 157.252C133.086 151.93 133.086 146.607 133.238 141.285C133.395 135.932 133.65 130.585 133.915 125.238C134.185 119.886 134.47 114.534 134.69 109.177C134.911 103.908 135.068 98.6399 135.083 93.3715C135.083 92.7221 135.083 92.0728 135.083 91.4235C135.083 91.1824 134.705 91.1824 134.705 91.4235L134.7 91.4185Z" fill="#F3D1A4"/>
<path id="Vector_76" d="M139.395 92.491C139.875 96.869 140.219 101.267 140.42 105.669C140.479 106.914 140.523 108.164 140.557 109.408C140.562 109.649 140.94 109.649 140.935 109.408C140.812 105.005 140.552 100.613 140.15 96.2295C140.037 94.985 139.91 93.7355 139.772 92.491C139.748 92.2548 139.37 92.2499 139.395 92.491Z" fill="#F3D1A4"/>
<path id="Vector_77" d="M143.427 93.0863C144.58 98.1678 145.443 103.313 146.11 108.483C146.773 113.649 147.244 118.833 147.616 124.023C147.989 129.203 148.274 134.388 148.568 139.573C148.862 144.787 149.166 149.997 149.579 155.201C149.991 160.337 150.511 165.467 151.232 170.574C151.325 171.228 151.423 171.882 151.521 172.536C151.555 172.777 151.918 172.674 151.884 172.438C151.094 167.278 150.53 162.083 150.089 156.879C149.647 151.679 149.333 146.465 149.034 141.255C148.74 136.07 148.465 130.881 148.107 125.701C147.749 120.506 147.312 115.316 146.689 110.146C146.076 105.04 145.281 99.9535 144.212 94.9261C144.075 94.2817 143.932 93.6323 143.785 92.9879C143.731 92.7518 143.368 92.8502 143.422 93.0863H143.427Z" fill="#F3D1A4"/>
<path id="Vector_78" d="M147.68 92.7518C148.97 97.8285 150.192 102.92 151.344 108.026C152.497 113.132 153.586 118.248 154.607 123.384C155.627 128.514 156.579 133.66 157.457 138.815C158.34 143.971 159.154 149.136 159.9 154.311C160.65 159.52 161.332 164.735 161.94 169.964C162.014 170.603 162.088 171.243 162.161 171.882C162.191 172.118 162.563 172.123 162.539 171.882C161.95 166.697 161.293 161.522 160.567 156.352C159.841 151.172 159.046 146.007 158.183 140.847C157.314 135.662 156.378 130.492 155.372 125.332C154.366 120.171 153.292 115.021 152.149 109.89C151.006 104.755 149.794 99.6338 148.514 94.5326C148.357 93.9079 148.2 93.2831 148.038 92.6584C147.979 92.4223 147.616 92.5256 147.675 92.7568L147.68 92.7518Z" fill="#F3D1A4"/>
</g>
</g>
<g id="Group_27">
<path id="Vector_79" d="M149.338 66.8276C150.741 67.2704 151.82 68.4264 152.541 69.7152C153.258 70.9991 153.67 72.4306 154.15 73.8227C155.396 77.3941 157.197 80.9162 157.138 84.6991C157.123 85.8748 156.893 87.1144 156.132 88.0097C155.289 88.9985 153.964 89.3969 152.713 89.7462C152.041 89.9331 151.349 90.125 150.658 90.0512C149.579 89.9381 148.642 89.1854 148.073 88.2557C147.508 87.326 147.263 86.2388 147.116 85.1566C146.719 82.2985 146.925 79.3962 147.126 76.5185C147.327 73.6702 147.548 70.7384 148.813 68.1804" fill="#5AA3DD"/>
<g id="Group_28">
<path id="Vector_80" d="M134.867 64.2398C132.282 64.9629 128.74 66.2468 126.474 67.698C126.12 67.9243 126.331 68.4063 126.135 68.7753C125.708 69.587 126.734 70.133 127.082 70.984C128.034 73.3108 127.572 75.9573 127.921 78.4514C128.446 82.185 130.795 85.6236 130.55 89.3868C130.53 89.6819 130.496 90.0017 130.633 90.2673C130.869 90.7346 131.482 90.833 132.007 90.8723C136.677 91.2167 141.357 91.443 146.037 91.561C146.307 91.566 146.601 91.566 146.822 91.4085C147.096 91.2118 147.17 90.8428 147.229 90.5083C147.548 88.6882 148.068 86.9025 148.769 85.1907C149.48 83.4591 150.393 81.7718 150.633 79.9124C150.741 79.0909 150.717 78.2546 150.687 77.4232C150.604 74.7718 150.52 72.1203 150.432 69.4689C150.417 69.0114 150.398 68.5392 150.167 68.1456C149.932 67.7423 149.51 67.4914 149.098 67.2651C147.199 66.2271 145.193 65.3909 143.118 64.7809C142.701 64.6579 142.264 64.5448 141.838 64.6186C141.215 64.7317 140.739 65.2138 140.194 65.5434C138.831 66.36 135.887 65.4401 134.857 64.2349" fill="#75B8EE"/>
<path id="Vector_81" d="M148.956 68.1655C149.029 67.4325 148.514 66.7586 147.916 66.3306C147.317 65.9026 146.611 65.6419 146.017 65.2041C145.424 64.7663 144.933 64.0678 145.046 63.3397C145.095 63.0347 145.247 62.7543 145.394 62.4838C145.693 61.9328 145.998 61.3819 146.297 60.8358C146.439 60.5751 146.581 60.3144 146.65 60.0242C146.807 59.3699 146.567 58.6861 146.326 58.0565C146.066 57.3678 145.801 56.6791 145.541 55.9855C145.497 55.8724 145.453 55.7445 145.502 55.6313C145.61 55.3706 146.007 55.4837 146.238 55.6461C147.067 56.2216 147.847 56.871 148.568 57.5793C149.373 58.3713 150.113 59.2617 150.535 60.3095C150.834 61.0523 150.967 61.8443 151.188 62.6117C151.58 63.9841 152.242 65.2582 152.811 66.5618C153.846 68.9378 154.587 71.4269 155.323 73.9111C155.73 75.2934 156.142 76.6855 156.309 78.117C156.427 79.1648 156.412 80.2224 156.392 81.2751C156.363 82.928 156.314 84.6005 155.946 86.214C155.735 87.1487 155.181 88.2358 154.229 88.2211C153.508 88.2112 152.983 87.557 152.605 86.9421C151.035 84.389 150.177 81.4473 149.736 78.481C149.294 75.5147 149 71.1563 148.956 68.1556" fill="#FFC2AC"/>
<path id="Vector_82" d="M130.668 86.8535C136.633 86.1992 142.662 87.98 148.622 87.3356C149.853 87.2027 151.271 87.0257 152.164 87.8865C152.968 88.6638 152.934 90.051 152.296 90.9758C151.658 91.8957 150.565 92.4023 149.466 92.6188C148.367 92.8352 147.239 92.7959 146.125 92.8697C144.707 92.9582 143.304 93.2189 141.887 93.3468C138.34 93.6666 134.72 93.1255 131.418 91.7924" fill="#FFC2AC"/>
<g id="Group_29">
<path id="Vector_83" d="M134.685 64.127C134.685 64.127 139.252 67.3097 141.936 64.5107C141.936 64.5107 143.942 65.0173 145.865 65.77C145.865 65.77 143.77 69.8873 139.645 66.3357C139.645 66.3357 135.696 71.55 131.718 65.3764L134.69 64.127H134.685Z" fill="#4795D5"/>
<path id="Vector_84" d="M134.788 63.8857C134.788 63.8857 139.351 66.4044 141.666 63.989C141.666 63.989 143.128 64.6777 144.786 65.3271C144.786 65.3271 142.981 68.8787 139.419 65.8141C139.419 65.8141 136.015 70.3151 132.581 64.9876L134.793 63.8907L134.788 63.8857Z" fill="#75B8EE"/>
</g>
<path id="Vector_85" d="M126.954 67.708C126.954 67.708 128.828 68.2393 129.849 76.0362C130.869 83.8331 131.718 84.0693 131.718 84.0693C131.718 84.0693 140.758 86.5928 142.255 87.3061L142.794 93.8388C142.794 93.8388 129.804 94.316 125.527 92.8353C121.249 91.3546 123.643 72.5731 123.643 72.5731C123.643 72.5731 124.492 67.2603 126.954 67.7129V67.708Z" fill="#75B8EE"/>
<g id="Group_30">
<path id="Vector_86" d="M128.441 71.6434C128.681 71.6434 128.681 71.2646 128.441 71.2646C128.2 71.2646 128.2 71.6434 128.441 71.6434Z" fill="#F3D1A4"/>
<path id="Vector_87" d="M125.046 78.7562C125.286 78.7562 125.286 78.3774 125.046 78.3774C124.806 78.3774 124.806 78.7562 125.046 78.7562Z" fill="#F3D1A4"/>
<path id="Vector_88" d="M132.758 81.1273C132.998 81.1273 132.998 80.7485 132.758 80.7485C132.517 80.7485 132.517 81.1273 132.758 81.1273Z" fill="#F3D1A4"/>
<path id="Vector_89" d="M126.591 87.1092C126.832 87.1092 126.832 86.7305 126.591 86.7305C126.351 86.7305 126.351 87.1092 126.591 87.1092Z" fill="#F3D1A4"/>
<path id="Vector_90" d="M129.059 92.5697C129.299 92.5697 129.299 92.1909 129.059 92.1909C128.818 92.1909 128.818 92.5697 129.059 92.5697Z" fill="#F3D1A4"/>
<path id="Vector_91" d="M135.328 87.3158C135.568 87.3158 135.568 86.937 135.328 86.937C135.088 86.937 135.088 87.3158 135.328 87.3158Z" fill="#F3D1A4"/>
<path id="Vector_92" d="M140.984 92.368C141.224 92.368 141.224 91.9893 140.984 91.9893C140.744 91.9893 140.744 92.368 140.984 92.368Z" fill="#F3D1A4"/>
<path id="Vector_93" d="M140.984 83.8085C141.224 83.8085 141.224 83.4297 140.984 83.4297C140.744 83.4297 140.744 83.8085 140.984 83.8085Z" fill="#F3D1A4"/>
<path id="Vector_94" d="M135.431 76.7987C135.671 76.7987 135.671 76.4199 135.431 76.4199C135.191 76.4199 135.191 76.7987 135.431 76.7987Z" fill="#F3D1A4"/>
<path id="Vector_95" d="M131.526 66.5912C131.767 66.5912 131.767 66.2124 131.526 66.2124C131.286 66.2124 131.286 66.5912 131.526 66.5912Z" fill="#F3D1A4"/>
<path id="Vector_96" d="M135.534 70.9203C135.774 70.9203 135.774 70.5415 135.534 70.5415C135.294 70.5415 135.294 70.9203 135.534 70.9203Z" fill="#F3D1A4"/>
<path id="Vector_97" d="M142.009 76.0756C142.25 76.0756 142.25 75.6968 142.009 75.6968C141.769 75.6968 141.769 76.0756 142.009 76.0756Z" fill="#F3D1A4"/>
<path id="Vector_98" d="M143.349 70.0985C143.589 70.0985 143.589 69.7197 143.349 69.7197C143.108 69.7197 143.108 70.0985 143.349 70.0985Z" fill="#F3D1A4"/>
<path id="Vector_99" d="M148.077 67.8309C148.318 67.8309 148.318 67.4521 148.077 67.4521C147.837 67.4521 147.837 67.8309 148.077 67.8309Z" fill="#F3D1A4"/>
<path id="Vector_100" d="M148.077 74.5306C148.318 74.5306 148.318 74.1519 148.077 74.1519C147.837 74.1519 147.837 74.5306 148.077 74.5306Z" fill="#F3D1A4"/>
<path id="Vector_101" d="M147.562 81.8505C147.803 81.8505 147.803 81.4717 147.562 81.4717C147.322 81.4717 147.322 81.8505 147.562 81.8505Z" fill="#F3D1A4"/>
<path id="Vector_102" d="M147.871 86.2826C148.112 86.2826 148.112 85.9038 147.871 85.9038C147.631 85.9038 147.631 86.2826 147.871 86.2826Z" fill="#F3D1A4"/>
<path id="Vector_103" d="M153.218 88.8602C153.459 88.8602 153.459 88.4814 153.218 88.4814C152.978 88.4814 152.978 88.8602 153.218 88.8602Z" fill="#F3D1A4"/>
</g>
<g id="Group_31">
<path id="Vector_104" d="M128.622 74.5851C128.745 76.1641 128.868 77.7481 128.985 79.3272C129.083 80.6062 129.078 81.9688 129.491 83.1937C129.662 83.7004 129.917 84.1874 130.295 84.5711C130.732 85.0089 131.301 85.2598 131.894 85.3926C132.571 85.5451 133.278 85.5893 133.969 85.6435C134.754 85.7074 135.534 85.7517 136.319 85.7861C138.09 85.8599 139.861 85.8747 141.632 85.8845C141.872 85.8845 141.872 85.5106 141.632 85.5057C138.669 85.486 135.686 85.491 132.738 85.1515C132.095 85.0777 131.423 84.9498 130.884 84.576C130.432 84.2661 130.114 83.7889 129.917 83.2822C129.481 82.1557 129.476 80.8866 129.388 79.7011L128.995 74.5851C128.975 74.344 128.603 74.344 128.617 74.5851H128.622Z" fill="#518BBA"/>
<path id="Vector_105" d="M127.568 84.0838C128.2 84.0838 128.833 84.1232 129.461 84.197C129.564 84.2068 129.647 84.1035 129.647 84.01C129.647 83.8969 129.559 83.8329 129.461 83.8231C128.833 83.7493 128.2 83.71 127.568 83.71C127.327 83.71 127.327 84.0887 127.568 84.0887V84.0838Z" fill="#518BBA"/>
<path id="Vector_106" d="M146.694 74.767C147.366 77.9497 148.043 81.1669 148.014 84.4382C148.004 85.3777 147.94 86.3124 147.798 87.2372C147.763 87.4733 148.122 87.5766 148.161 87.3356C148.661 84.0348 148.244 80.7045 147.626 77.448C147.45 76.5182 147.253 75.5885 147.057 74.6637C147.008 74.4276 146.645 74.526 146.694 74.7621V74.767Z" fill="#518BBA"/>
</g>
</g>
</g>
</g>
<g id="Group_32">
<g id="Group_33">
<path id="Vector_107" d="M58.8905 169.161C58.8905 169.161 57.7328 172.649 58.3558 177.076C58.3558 177.076 54.6228 179.054 50.9633 176.54C50.9633 176.54 54.0047 174.218 53.0481 168" fill="#FFC2AC"/>
<path id="Vector_108" d="M42.4522 180.825C42.5601 180.599 42.7318 180.397 42.9575 180.269C44.1986 179.561 47.2204 177.883 51.7923 175.63C51.7923 175.63 54.353 176.491 58.2381 175.999C58.2381 175.999 58.6502 178.552 58.606 180.668C56.2269 180.771 47.0438 181.145 42.4522 180.82V180.825Z" fill="#D03711"/>
<path id="Vector_109" d="M58.6011 180.672C58.5913 181.199 58.5668 181.705 58.5324 182.138H42.3148V181.371C42.3148 181.179 42.3688 180.992 42.4473 180.825C47.0339 181.145 56.217 180.776 58.6011 180.672Z" fill="#400E09"/>
<path id="Vector_110" d="M47.5245 178.587C47.6843 178.587 47.8139 178.457 47.8139 178.297C47.8139 178.136 47.6843 178.006 47.5245 178.006C47.3647 178.006 47.2351 178.136 47.2351 178.297C47.2351 178.457 47.3647 178.587 47.5245 178.587Z" fill="#400E09"/>
<path id="Vector_111" d="M49.9625 177.372C49.9625 177.529 49.835 177.662 49.6731 177.662C49.5112 177.662 49.3837 177.534 49.3837 177.372C49.3837 177.209 49.5112 177.082 49.6731 177.082C49.835 177.082 49.9625 177.209 49.9625 177.372Z" fill="#400E09"/>
<path id="Vector_112" d="M52.0866 176.245C52.0866 176.403 51.9591 176.536 51.7972 176.536C51.6353 176.536 51.5078 176.408 51.5078 176.245C51.5078 176.083 51.6353 175.955 51.7972 175.955C51.9591 175.955 52.0866 176.083 52.0866 176.245Z" fill="#400E09"/>
</g>
<g id="Group_34">
<path id="Vector_113" d="M74.7893 168.33C74.7893 168.33 75.1179 174.612 74.2644 177.44C74.2644 177.44 77.9975 179.418 81.657 176.904C81.657 176.904 79.0423 175.999 80.254 165.89" fill="#FFC2AC"/>
<path id="Vector_114" d="M90.168 181.194C90.0601 180.967 89.8884 180.766 89.6628 180.638C88.4217 179.929 85.3999 178.252 80.8279 175.999C80.8279 175.999 78.2673 176.86 74.3821 176.368C74.3821 176.368 73.9701 178.921 74.0142 181.036C76.3934 181.14 85.5765 181.513 90.168 181.189V181.194Z" fill="#D03711"/>
<path id="Vector_115" d="M74.0191 181.042C74.0289 181.568 74.0534 182.075 74.0878 182.507H90.3054V181.74C90.3054 181.548 90.2514 181.361 90.1729 181.194C85.5863 181.514 76.4032 181.145 74.0191 181.042Z" fill="#400E09"/>
<path id="Vector_116" d="M81.446 176.801C81.446 176.958 81.3185 177.091 81.1566 177.091C80.9947 177.091 80.8672 176.963 80.8672 176.801C80.8672 176.639 80.9947 176.511 81.1566 176.511C81.3185 176.511 81.446 176.639 81.446 176.801Z" fill="#400E09"/>
<path id="Vector_117" d="M86.3515 179.172C86.3515 179.329 86.224 179.462 86.0621 179.462C85.9002 179.462 85.7727 179.334 85.7727 179.172C85.7727 179.01 85.9002 178.882 86.0621 178.882C86.224 178.882 86.3515 179.01 86.3515 179.172Z" fill="#400E09"/>
<path id="Vector_118" d="M83.6535 178.046C83.6535 178.203 83.526 178.336 83.3641 178.336C83.2022 178.336 83.0747 178.208 83.0747 178.046C83.0747 177.883 83.2022 177.755 83.3641 177.755C83.526 177.755 83.6535 177.883 83.6535 178.046Z" fill="#400E09"/>
</g>
<g id="Group_35">
<path id="Vector_119" d="M70.1585 43.4267C70.9286 46.4618 70.2958 49.7282 68.9419 52.5518C68.7751 52.901 68.5936 53.2995 68.7359 53.6586C68.8389 53.9242 69.0989 54.0964 69.349 54.2341C71.7331 55.5623 74.8236 55.5131 77.1635 54.1062C77.2371 54.062 77.3156 54.0128 77.3499 53.9292C77.4186 53.7717 77.2763 53.6045 77.1635 53.4766C76.5209 52.7633 76.8594 51.9172 76.5798 50.9973C75.3828 47.0521 76.1186 43.466 77.5118 39.6782" fill="#FFC2AC"/>
<path id="Vector_120" d="M70.4577 47.0226C71.6546 46.7422 73.0331 45.9846 74.0142 45.2172C75.0983 44.3662 75.79 43.5053 76.1775 42.61C76.3149 42.2903 76.5307 42.0345 76.7907 41.8279C77.0016 41.1195 77.242 40.4062 77.502 39.6831L70.1487 43.4266C70.3841 44.3613 70.4577 46.0633 70.4528 47.0226H70.4577Z" fill="#FC7F51"/>
</g>
<g id="Group_36">
<path id="Vector_121" d="M72.1059 28.3341C71.2965 28.2111 70.4773 28.5259 69.766 28.9342C67.9264 29.9968 66.4989 31.7578 65.8416 33.7796C65.5767 34.5864 65.4345 35.4276 65.3216 36.2688C65.0567 38.2512 64.7771 39.0137 64.8654 41.0158C64.8899 41.6405 65.3952 44.1247 65.6601 44.6954C66.0182 45.4627 66.2635 45.6251 67.0729 45.8809C67.8774 46.1416 68.9762 45.9202 69.8151 45.7923C72.3169 45.4086 74.6274 43.928 76.0205 41.8078C77.4137 39.6876 77.865 36.9722 77.2322 34.5175" fill="#FFC2AC"/>
<path id="Vector_122" d="M83.5995 29.982C82.4664 30.0657 81.3675 30.3313 80.3178 30.7494C80.4355 30.3067 82.1622 27.9553 80.9751 28.4276C80.8623 29.0622 78.8706 31.4135 79.9057 31.4529C80.3717 30.8134 84.7474 30.6314 83.5946 29.982H83.5995Z" fill="#2D0E0B"/>
<g id="Group_37">
<path id="Vector_123" d="M72.8908 41.4637C72.7191 42.1524 71.7626 42.5115 70.752 42.2606C69.7415 42.0097 69.0596 41.2473 69.2264 40.5586C69.3981 39.8699 70.3547 39.5108 71.3652 39.7617C72.3758 40.0125 73.0576 40.775 72.8908 41.4637Z" fill="#FC7F51"/>
<path id="Vector_124" d="M69.7709 36.6577C70.806 36.6085 72.1256 36.6478 72.6603 37.2381C72.9301 37.5333 73.2538 37.4644 73.0086 37.1496C72.2482 36.1657 71.223 36.0674 69.7121 36.0182C69.5502 36.0132 69.4128 36.1903 69.4324 36.3773C69.4472 36.5347 69.6041 36.697 69.7709 36.6527V36.6577Z" fill="#2D0E0B"/>
<path id="Vector_125" d="M67.1808 35.2754C66.6118 34.9262 66.1163 34.6458 65.6356 34.4785C65.6111 34.5671 65.5816 34.6507 65.5522 34.7392C65.5522 34.8179 65.5375 34.8966 65.5277 34.9704C65.9692 35.182 66.4156 35.4771 66.7982 35.7526C66.9061 35.8756 67.122 35.8264 67.2103 35.7083C67.3231 35.5657 67.3084 35.3541 67.1759 35.2754H67.1808Z" fill="#2D0E0B"/>
<path id="Vector_126" d="M66.3812 36.9185C66.3175 37.1793 66.1409 37.3613 65.9937 37.3219C65.8416 37.2826 65.773 37.0415 65.8367 36.7808C65.9005 36.5201 66.0771 36.3381 66.2243 36.3774C66.3763 36.4168 66.445 36.6578 66.3812 36.9185Z" fill="#2D0E0B"/>
<path id="Vector_127" d="M70.7422 38.3793C70.6687 38.6745 70.4479 38.8713 70.2419 38.8221C70.0358 38.7729 69.9328 38.4925 70.0015 38.1973C70.0751 37.9022 70.2958 37.7054 70.5019 37.7546C70.7079 37.8038 70.8109 38.0842 70.7422 38.3793Z" fill="#2D0E0B"/>
<path id="Vector_128" d="M67.1121 39.8107C66.9503 39.7271 66.8227 39.609 66.7099 39.4713C67.3231 39.1073 67.7646 38.4678 67.8725 37.7643C67.8872 37.6709 67.848 37.5725 67.745 37.5479C67.6616 37.5233 67.5389 37.5774 67.5242 37.6758C67.4212 38.3694 66.9797 38.9695 66.3469 39.2696C66.2586 39.309 66.2341 39.4369 66.2831 39.5156C66.4401 39.7763 66.6657 39.9878 66.9306 40.1256C67.1318 40.2338 67.3133 39.9239 67.1121 39.8156V39.8107Z" fill="#F46E45"/>
<path id="Vector_129" d="M65.9888 41.3164C65.9888 41.3164 66.7933 42.0444 68.0148 41.8674C68.0148 41.8674 66.1311 42.8955 65.9888 41.3164Z" fill="#E53E3E"/>
</g>
<path id="Vector_130" d="M82.4467 35.5262C82.3143 33.652 82.1328 32.009 80.4943 31.0891L80.254 30.8234C80.0872 29.6822 79.4053 28.6639 78.5223 27.926C77.919 27.4193 77.2175 27.0406 76.4915 26.7356C73.0036 25.4861 68.1178 26.7454 65.3364 27.6801C65.562 28.0195 65.7828 28.3589 66.0084 28.6983C65.0567 28.7229 64.1051 28.6541 63.1681 28.4966C63.5949 30.1593 64.213 31.8122 65.2922 33.1453C66.5774 34.7342 68.4268 35.3885 70.3743 36.0083C72.3169 36.633 73.5334 37.2873 75.5594 37.5627C75.7851 37.5923 75.4515 40.4405 75.6477 40.5585C75.9764 40.7651 77.0605 38.9549 77.1488 39.3337C77.6639 41.5768 75.476 43.2001 76.0647 45.4236C77.762 44.8874 80.2049 42.6246 81.1419 40.9963C82.0788 39.3681 82.5841 37.3807 82.4516 35.5065L82.4467 35.5262Z" fill="#2D0E0B"/>
<g id="Group_38">
<path id="Vector_131" d="M75.2455 40.9671C75.4956 40.2243 76.5847 38.6255 77.2371 38.1926C77.4284 38.0647 77.6393 37.9565 77.865 37.927C78.0907 37.8975 78.3408 37.9664 78.488 38.1484C78.6008 38.2861 78.6352 38.4681 78.6548 38.6452C78.7284 39.3683 78.5469 40.121 78.1495 40.731C77.7522 41.3409 77.139 41.8083 76.4473 42.0296C76.0549 42.1575 75.5545 42.1674 75.319 41.8329C75.1523 41.5918 75.1964 41.2622 75.2455 40.972" fill="#FFC2AC"/>
<path id="Vector_132" d="M75.9764 40.175C75.9372 40.3275 75.9175 40.4849 75.947 40.6177C75.9764 40.7505 76.0696 40.8538 76.2217 40.8735C76.3688 40.8932 76.5503 40.8292 76.7122 40.7259C76.8692 40.6226 77.0066 40.48 77.1096 40.3324C77.3009 40.0717 77.4088 39.7716 77.3303 39.5601C77.2518 39.3486 76.9477 39.2698 76.6534 39.4273C76.4571 39.5306 76.31 39.7126 76.1775 39.8848" fill="#FC7F51"/>
</g>
</g>
<g id="Group_39">
<path id="Vector_133" d="M80.6268 84.6494C80.6268 84.6494 85.9395 92.8792 86.6262 102.486C87.313 112.094 85.2183 173.53 85.2183 173.53L72.724 173.977C72.724 173.977 73.6708 120.446 72.4788 113.81L60.6712 173.539L48.0641 173.195C48.0641 173.195 58.6403 91.861 62.8198 85.2889L80.6268 84.6543V84.6494Z" fill="#1D2B4F"/>
<g id="Group_40" opacity="0.5">
<path id="Vector_134" d="M69.8789 94.9602C69.614 96.677 69.5011 98.4135 69.5502 100.15C69.5943 101.65 69.7513 103.259 70.6686 104.508C71.115 105.113 71.6939 105.591 72.4003 105.851C72.4935 105.886 72.6063 105.812 72.6308 105.719C73.5335 102.354 73.1263 98.8218 73.7346 95.4128C73.7787 95.1767 73.4157 95.0734 73.3716 95.3144C72.7682 98.7234 73.1704 102.255 72.2678 105.62C72.3463 105.576 72.4199 105.532 72.4984 105.487C71.223 105.025 70.4822 103.766 70.1781 102.501C70.0015 101.759 69.9475 100.996 69.923 100.239C69.8985 99.4318 69.9083 98.625 69.9524 97.8232C70.0015 96.8984 70.0996 95.9785 70.237 95.0635C70.2713 94.8274 69.9132 94.7241 69.8739 94.9651L69.8789 94.9602Z" fill="#F3D1A4"/>
</g>
<g id="Group_41" opacity="0.5">
<path id="Vector_135" d="M77.8405 94.3941C79.474 96.9521 81.2596 99.6528 84.1784 100.853C84.404 100.947 84.4973 100.582 84.2765 100.489C81.4657 99.333 79.7389 96.6668 78.1642 94.2023C78.0367 94.0006 77.708 94.1875 77.8405 94.3941Z" fill="#F3D1A4"/>
</g>
<g id="Group_42" opacity="0.5">
<path id="Vector_136" d="M59.7392 99.1611C60.995 98.5905 62.0006 97.6165 62.913 96.608C63.9039 95.516 64.8115 94.3452 65.6258 93.1105C65.7582 92.9088 65.4345 92.7169 65.302 92.9186C64.5073 94.1238 63.6194 95.27 62.6481 96.3375C61.7504 97.3262 60.7791 98.2756 59.5479 98.8315C59.3271 98.9299 59.5184 99.2546 59.7392 99.1562V99.1611Z" fill="#F3D1A4"/>
</g>
<g id="Group_43" opacity="0.5">
<path id="Vector_137" d="M73.2784 116.309C74.1662 123.526 74.8334 130.767 75.2749 138.028C75.7115 145.249 75.9273 152.485 75.9224 159.716C75.9224 163.794 75.8439 167.867 75.6968 171.941C75.6869 172.182 76.0647 172.182 76.0745 171.941C76.3345 164.675 76.3688 157.399 76.1824 150.134C75.9911 142.903 75.579 135.676 74.9462 128.47C74.5881 124.411 74.1564 120.353 73.661 116.309C73.6315 116.073 73.2538 116.068 73.2833 116.309H73.2784Z" fill="#F3D1A4"/>
</g>
<g id="Group_44" opacity="0.5">
<path id="Vector_138" d="M57.154 170.553C57.566 166.692 58.1939 162.855 58.9494 159.047C59.7048 155.235 60.5878 151.452 61.5003 147.674C62.3685 144.063 63.2417 140.453 64.1738 136.857C65.0911 133.33 66.0771 129.822 67.2495 126.374C68.4219 122.921 69.7758 119.526 71.4094 116.265C71.6154 115.857 71.8263 115.448 72.0373 115.04C72.1501 114.824 71.8263 114.637 71.7135 114.848C70.0162 118.075 68.5936 121.44 67.3721 124.874C66.1409 128.337 65.1058 131.869 64.1639 135.415C63.2074 139.011 62.3391 142.637 61.461 146.252C60.5437 150.03 59.646 153.808 58.8611 157.616C58.0762 161.413 57.4091 165.241 56.9479 169.092C56.8891 169.574 56.8351 170.061 56.7861 170.548C56.7615 170.789 57.1344 170.789 57.1638 170.548L57.154 170.553Z" fill="#F3D1A4"/>
</g>
</g>
<g id="Group_45">
<path id="Vector_139" d="M63.173 52.2563C61.5052 52.8516 60.2592 54.6225 59.1996 56.3885C57.3404 59.4925 55.7314 62.8425 54.4069 66.3695C54.3088 66.6303 54.2107 66.9205 54.2695 67.2009C54.3284 67.4911 54.5344 67.678 54.7307 67.8453C57.1981 69.9606 59.7245 71.9676 62.2949 73.8664C62.4323 73.9648 62.5991 74.0681 62.7315 73.9697C62.8395 73.891 62.8836 73.7139 62.9081 73.5565C64.0756 67.1369 63.8598 60.4517 63.644 53.8649" fill="#3D9E9D"/>
<path id="Vector_140" d="M83.6437 51.8926C85.7923 52.4878 87.3866 54.2587 88.7503 56.0247C91.1393 59.1287 93.2094 62.4787 94.9116 66.0058C95.0392 66.2665 95.1667 66.5567 95.0931 66.8371C95.0146 67.1273 94.7497 67.3143 94.5045 67.4815C91.3306 69.5968 88.0881 71.6038 84.7818 73.5026C84.6101 73.601 84.3942 73.7043 84.2176 73.6059C84.0754 73.5272 84.0263 73.3501 83.9871 73.1927C82.4909 66.7732 82.7607 60.088 83.0403 53.5012" fill="#3D9E9D"/>
<g id="Group_46">
<g id="Group_47">
<path id="Vector_141" d="M69.9721 49.733C71.2867 50.2643 73.9651 50.5004 75.2945 49.9986C75.6134 49.8806 75.9273 49.7281 76.2658 49.7231C76.5111 49.7231 76.7465 49.7871 76.982 49.8609C79.0374 50.4758 81.0879 51.0907 83.1433 51.7105C83.4278 51.7941 83.732 51.8925 83.9233 52.1237C84.1146 52.3549 84.1539 52.6697 84.1833 52.9698C84.3942 55.0113 84.6101 57.0528 84.821 59.0942C85.0074 60.8897 85.1938 62.6852 85.2183 64.4906C85.2429 66.2861 85.1006 68.0767 84.9878 69.8722C84.5365 77.2116 84.5904 84.5757 84.5071 91.9299C84.5071 92.2398 84.4776 92.5989 84.2274 92.7809C84.0999 92.8744 83.938 92.9039 83.781 92.9285C75.9028 94.1829 67.8627 93.1597 59.955 92.1365C60.0924 90.2525 60.2346 88.3635 60.1267 86.4794C60.0286 84.7233 60.426 77.7823 60.2935 76.0261C60.0531 72.8828 59.6705 74.9341 59.9894 71.7956C60.5976 65.8729 61.2059 59.9452 61.8142 54.0225C61.8584 53.5798 61.9123 53.1125 62.1674 52.7485C62.4372 52.3648 62.8836 52.1582 63.3104 51.9761C65.4639 51.0513 67.691 50.3036 69.9672 49.7428" fill="#4ABAB9"/>
<g id="Group_48" opacity="0.5">
<path id="Vector_142" d="M84.5757 81.0092C84.1391 83.1097 83.6191 85.3381 82.3977 87.1386C80.3472 90.154 76.05 90.3951 72.7387 90.582C69.3932 90.7689 64.733 91.1035 62.0742 88.6488C61.1961 87.8371 60.5731 86.8779 60.1071 85.835C60.1071 86.0859 60.112 86.3023 60.1218 86.4696C60.2248 88.3536 60.0875 90.2426 59.9501 92.1266C67.8627 93.1498 75.8979 94.173 83.7761 92.9186C83.9331 92.894 84.095 92.8645 84.2225 92.7711C84.4727 92.5891 84.4972 92.23 84.5021 91.92C84.5414 88.2405 84.5512 84.5609 84.6052 80.8813C84.5953 80.9256 84.5855 80.965 84.5757 81.0092Z" fill="#246F6E"/>
</g>
<g id="Group_49" opacity="0.5">
<path id="Vector_143" d="M94.9116 66.0057C93.4449 62.9607 91.7034 60.0534 89.7167 57.3184C90.2808 59.1926 90.531 61.1996 90.6438 63.0837C90.8744 66.8518 88.3235 70.0197 85.8806 72.8581C88.8043 71.1512 91.6789 69.3606 94.4995 67.4814C94.7497 67.3142 95.0146 67.1273 95.0882 66.837C95.1618 66.5566 95.0342 66.2664 94.9067 66.0057H94.9116Z" fill="#246F6E"/>
</g>
</g>
<path id="Vector_144" d="M55.9325 66.8371C56.2219 66.0845 56.5653 65.3466 56.9479 64.6382C57.0608 64.4267 56.737 64.2348 56.6242 64.4464C56.2219 65.1842 55.8736 65.9516 55.5695 66.7387C55.5352 66.8322 55.6087 66.9453 55.702 66.9699C55.8099 66.9994 55.8982 66.9355 55.9325 66.8371Z" fill="#06593B"/>
<g id="Group_50">
<path id="Vector_145" d="M83.9822 69.8625C84.4433 70.743 84.8652 71.6383 85.2527 72.5533C85.2919 72.6468 85.4293 72.6665 85.5078 72.6222C85.6059 72.5681 85.6157 72.4598 85.5765 72.3664C85.1889 71.4514 84.767 70.5561 84.3059 69.6756C84.1931 69.4591 83.8693 69.651 83.9822 69.8674V69.8625Z" fill="#06593B"/>
<path id="Vector_146" d="M85.8561 68.6473C86.3662 69.4884 86.8273 70.3591 87.2296 71.2594C87.3277 71.4807 87.6515 71.2889 87.5534 71.0675C87.1462 70.1722 86.69 69.3015 86.1798 68.4554C86.0523 68.2488 85.7285 68.4357 85.8561 68.6473Z" fill="#06593B"/>
<path id="Vector_147" d="M87.9164 67.0831C88.2254 67.9833 88.608 68.859 89.0643 69.6952C89.182 69.9068 89.5058 69.7198 89.388 69.5034C88.9514 68.6966 88.5786 67.8554 88.2794 66.9848C88.2009 66.7585 87.8379 66.8568 87.9164 67.0831Z" fill="#06593B"/>
<path id="Vector_148" d="M89.7756 65.9519C90.2073 66.675 90.5997 67.4227 90.9431 68.1901C90.9823 68.2836 91.1197 68.3033 91.1982 68.259C91.2914 68.2049 91.3061 68.0967 91.2669 68.0032C90.9235 67.2358 90.5359 66.4881 90.0993 65.765C89.9767 65.5584 89.648 65.7453 89.7756 65.9568V65.9519Z" fill="#06593B"/>
<path id="Vector_149" d="M92.1155 64.7219C92.5079 65.3909 92.8562 66.0846 93.1555 66.8028C93.1947 66.8962 93.2781 66.9651 93.386 66.9356C93.4743 66.911 93.5577 66.7978 93.5185 66.7044C93.2045 65.9567 92.8464 65.2335 92.4393 64.535C92.3166 64.3284 91.9929 64.5153 92.1155 64.7268V64.7219Z" fill="#06593B"/>
</g>
<g id="Group_51">
<path id="Vector_150" d="M61.4512 88.4523C61.3433 89.4607 61.2403 90.4691 61.1324 91.4727C61.1078 91.7137 61.4806 91.7137 61.5101 91.4727C61.618 90.4642 61.721 89.4558 61.8289 88.4523C61.8535 88.2112 61.4806 88.2112 61.4512 88.4523Z" fill="#06593B"/>
<path id="Vector_151" d="M64.007 91.5808C64.1885 90.5478 64.2866 89.5049 64.3062 88.4571C64.3062 88.2161 63.9334 88.2161 63.9285 88.4571C63.9138 89.4705 63.8157 90.4839 63.644 91.4825C63.6047 91.7186 63.9628 91.8219 64.007 91.5808Z" fill="#06593B"/>
<path id="Vector_152" d="M66.6608 91.8121C66.7344 90.6905 66.8129 89.5738 66.8865 88.4523C66.9012 88.2112 66.5284 88.2112 66.5088 88.4523C66.4352 89.5738 66.3567 90.6905 66.2831 91.8121C66.2684 92.0531 66.6412 92.0531 66.6608 91.8121Z" fill="#06593B"/>
<path id="Vector_153" d="M69.8789 92.0335C69.7807 90.8873 69.8641 89.7313 70.1339 88.6097C70.1928 88.3736 69.8298 88.2752 69.7709 88.5114C69.4962 89.6624 69.403 90.8529 69.5011 92.0335C69.5207 92.2745 69.8985 92.2745 69.8789 92.0335Z" fill="#06593B"/>
<path id="Vector_154" d="M72.7192 92.4269C72.7633 91.2168 72.7633 90.0017 72.7192 88.7916C72.7094 88.5506 72.3365 88.5506 72.3414 88.7916C72.3856 90.0017 72.3856 91.2168 72.3414 92.4269C72.3316 92.668 72.7094 92.668 72.7192 92.4269Z" fill="#06593B"/>
<path id="Vector_155" d="M76.0205 92.2595C76.1579 91.2019 76.202 90.1344 76.1579 89.0719C76.1481 88.8309 75.7704 88.8309 75.7802 89.0719C75.8243 90.1394 75.7802 91.2019 75.6428 92.2595C75.6281 92.3628 75.7409 92.4465 75.8292 92.4465C75.9421 92.4465 76.0058 92.3579 76.0156 92.2595H76.0205Z" fill="#06593B"/>
<path id="Vector_156" d="M78.7578 92.5399C78.8363 91.3642 78.9148 90.1885 78.9933 89.0128C79.008 88.7718 78.6352 88.7718 78.6156 89.0128C78.5371 90.1885 78.4586 91.3642 78.3801 92.5399C78.3654 92.7809 78.7382 92.7809 78.7578 92.5399Z" fill="#06593B"/>
<path id="Vector_157" d="M81.6619 89.0427V92.1713C81.6619 92.3779 82.0396 92.3779 82.0396 92.1713V89.0427C82.0396 88.836 81.6619 88.836 81.6619 89.0427Z" fill="#06593B"/>
</g>
<g id="Group_52">
<path id="Vector_158" d="M68.6525 52.2907C69.0793 51.7988 69.4815 51.2773 69.8494 50.7362C69.9083 50.6526 69.8641 50.5296 69.7808 50.4804C69.6875 50.4263 69.5796 50.4657 69.5257 50.5493C69.1774 51.0658 68.7997 51.5577 68.3876 52.025C68.3189 52.1038 68.314 52.2169 68.3876 52.2907C68.4563 52.3596 68.5838 52.3694 68.6525 52.2907Z" fill="#06593B"/>
<path id="Vector_159" d="M71.0071 51.5429C70.9335 52.1578 70.86 52.7727 70.7864 53.3876C70.7766 53.4909 70.8796 53.5745 70.9728 53.5745C71.0856 53.5745 71.1494 53.486 71.1592 53.3876C71.2328 52.7727 71.3064 52.1578 71.3799 51.5429C71.3898 51.4396 71.2867 51.356 71.1935 51.356C71.0807 51.356 71.0169 51.4445 71.0071 51.5429Z" fill="#06593B"/>
<path id="Vector_160" d="M72.9889 51.7544C73.1018 52.3693 73.1655 52.9891 73.1753 53.6089C73.1803 53.85 73.558 53.85 73.5531 53.6089C73.5384 52.9547 73.4697 52.3004 73.3519 51.6511C73.3323 51.5527 73.2146 51.4937 73.1214 51.5183C73.0184 51.5478 72.9742 51.6511 72.9889 51.7495V51.7544Z" fill="#06593B"/>
<path id="Vector_161" d="M74.8825 51.302C75.216 51.8628 75.5104 52.4433 75.7605 53.0483C75.7998 53.1418 75.8832 53.2107 75.9911 53.1811C76.0794 53.1565 76.1628 53.0434 76.1236 52.9499C75.8636 52.3154 75.5594 51.7054 75.2111 51.1151C75.0885 50.9085 74.7647 51.0954 74.8874 51.3069L74.8825 51.302Z" fill="#06593B"/>
<path id="Vector_162" d="M76.5602 50.5396C77.2273 50.9872 77.8454 51.5086 78.3948 52.0989C78.5616 52.276 78.8265 52.0104 78.6597 51.8333C78.0858 51.2233 77.448 50.6773 76.7515 50.2149C76.5503 50.0821 76.3639 50.4067 76.5602 50.5396Z" fill="#06593B"/>
</g>
</g>
</g>
<path id="Vector_163" d="M62.1919 53.6681C63.1338 49.7426 63.9824 47.2485 66.0378 43.7756C66.2488 43.4214 66.6657 43.018 66.9993 43.2591C67.2495 43.4362 67.1955 43.8149 67.117 44.1101C66.862 45.0496 66.6118 45.9892 66.3567 46.9337C66.2929 47.1649 66.2341 47.401 66.2635 47.6371C66.3469 48.2865 67.0484 48.6259 67.6321 48.9161C68.2159 49.2064 68.8585 49.7524 68.677 50.3821C68.6034 50.6428 68.3974 50.8445 68.211 51.0412C66.7737 52.5613 66.0084 54.6027 65.5963 56.654C65.1843 58.7054 64.1688 63.6295 63.8892 65.7005C63.1828 70.9197 62.1232 74.801 58.7434 77.4082C58.3166 77.7378 57.6249 77.8903 57.1147 77.7181C56.8989 77.6443 56.7272 77.4721 56.58 77.295C55.3193 75.8144 54.9122 73.7483 55.0839 71.8101C55.2506 69.872 55.9374 68.0174 56.6438 66.2071C57.9781 62.7785 60.4701 58.3659 62.1919 53.6681Z" fill="#FFC2AC"/>
<path id="Vector_164" d="M95.4954 78.4411C94.7301 75.1649 93.6313 71.9675 92.2381 68.9077L86.4447 72.4987C87.2541 74.2696 88.0145 76.0652 88.7062 77.8853C89.0201 78.7117 89.3292 79.5922 89.2065 80.4678C89.1133 81.1319 88.7797 81.737 88.4462 82.3224C85.9591 86.6611 83.1335 90.808 80.0087 94.7139C79.8272 94.9401 79.6359 95.1959 79.6506 95.4862C79.6604 95.7026 79.788 95.8945 79.9106 96.0765C80.4355 96.8488 80.9653 97.6162 81.4902 98.3885C81.5785 98.5213 81.6962 98.6689 81.8581 98.6738C82.0102 98.6738 82.1328 98.5508 82.2309 98.4377C84.7523 95.4911 87.2787 92.5445 89.8001 89.6028C91.6544 87.4384 93.5185 85.2591 94.892 82.7602C95.2992 82.0174 95.672 81.2254 95.7358 80.3793C95.7848 79.73 95.6474 79.0806 95.5003 78.4411H95.4954Z" fill="#FFC2AC"/>
</g>
</g>
</g>
</g>
<defs>
<clipPath id="clip0_0_1">
<rect width="1440" height="6737" fill="white" transform="translate(-951 -4966)"/>
</clipPath>
<clipPath id="clip1_0_1">
<rect width="197" height="186" fill="white"/>
</clipPath>
</defs>
</svg>
