<svg xmlns="http://www.w3.org/2000/svg" width="169.917" height="66.052" viewBox="0 0 169.917 66.052">
  <g id="Group_74" data-name="Group 74" transform="translate(-679.791 -3943.765)">
    <g id="_186386_paper_plane_plane_send_icon" data-name="186386_paper plane_plane_send_icon" transform="translate(811.511 3941.638)">
      <g id="Group_72" data-name="Group 72" transform="translate(1.126 2.127)">
        <path id="Path_94" data-name="Path 94" d="M2.143,20.338c-1.4.736-1.346,1.814.127,2.4l4.36,1.725a5.593,5.593,0,0,0,4.952-.713L30.518,8.817c1.245-.981,1.379-.836.3.323L15.844,25.162a1.81,1.81,0,0,0,.713,3.143l.511.2c1.477.57,3.888,1.532,5.355,2.128L27.258,32.6c1.468.6,2.67,1.091,2.672,1.1s.008.036.016.039.354-1.247.77-2.775l7.371-27.1C38.5,2.343,37.7,1.694,36.292,2.43Z" transform="translate(-1.126 -2.127)" fill="#dedede"/>
      </g>
      <g id="Group_73" data-name="Group 73" transform="translate(10.875 28.54)">
        <path id="Path_95" data-name="Path 95" d="M11.885,32.041C11.8,32.3,14.867,27.6,14.867,27.6a2.294,2.294,0,0,0-1.091-3.5L10.43,22.723c-1.467-.6-2.169.1-1.562,1.571C8.868,24.295,11.973,31.776,11.885,32.041Z" transform="translate(-8.649 -22.509)" fill="#dedede"/>
      </g>
    </g>
    <path id="Path_96" data-name="Path 96" d="M603.5,3981.254s36.431,31.6,54.668,22.693,7.634-21.913-6.221-17.389-24.352,16.879-3.411,27.949,87.1-33.253,87.1-33.253" transform="translate(77 -7)" fill="none" stroke="#fff" stroke-linecap="round" stroke-width="1" stroke-dasharray="5"/>
  </g>
</svg>
